# xmcd
#
# Track frame offsets:
#	150
#	24167
#	37945
#	53142
#	69197
#	81142
#	95583
#	114477
#	130910
#	144369
#
# Disc length: 2170 seconds
#
# Revision: 1
# Processed by: cddbd v1.5.2PL0 Copyright (c) Steve Scherf et al.
# Submitted via: audiograbber 1.83.01
#
DISCID=7608780a
DTITLE=Various Artist - Best of Country Disc 1
DYEAR=2010
DGENRE=Country
TTITLE0=Restless Heart - Bluest Eyes in Texas [Live]
TTITLE1=Tanya Tucker - If Your Heart Ain't Busy Tonight [Live]
TTITLE2=Doug Stone - Better Off in a Pine Box
TTITLE3=Pam Tillis - Shake the Sugar Tree [Live]
TTITLE4=Lee Greenwood - God Bless the USA [Live]
TTITLE5=T. Graham Brown - Darlene
TTITLE6=Exile - I Can't Get Close Enough
TTITLE7=Janie Frcke - Always Have, Always Will
TTITLE8=Mickey Gilley - True Love Ways [Live]
TTITLE9=Juice Newton - Angel of the Morning
EXTD=
EXTT0=
EXTT1=
EXTT2=
EXTT3=
EXTT4=
EXTT5=
EXTT6=
EXTT7=
EXTT8=
EXTT9=
PLAYORDER=
